# xmcd
#
# Track frame offsets:
#	150
#	14222
#	33417
#	53120
#	69362
#	93647
#	110502
#	130240
#
# Disc length: 2368 seconds
#
# Revision: 1
# Processed by: cddbd v1.5.1PL2 Copyright (c) Steve Scherf et al.
# Submitted via: audiograbber 1.83.01
#
DISCID=6e093e08
DTITLE=Zilion - Zilion
DYEAR=1997
DGENRE=Lo-Fi
TTITLE0=Oso Argei Na Ximerosei
TTITLE1=Voutia Sto Keno
TTITLE2=Galazia Mera
TTITLE3=Anemozali
TTITLE4=San Oneiro
TTITLE5=Anemostrovilos
TTITLE6=Sirines
TTITLE7=O Tyxodioktis
EXTD=O proswpikos diskos toy Nikou Iwakeimidh apo tis Maskes (Ano Kato Records)
EXTT0=
EXTT1=
EXTT2=
EXTT3=
EXTT4=
EXTT5=
EXTT6=
EXTT7=
PLAYORDER=
